<?xml version="1.0" encoding="UTF-8" standalone="no"?>
<svg
   xmlns:dc="http://purl.org/dc/elements/1.1/"
   xmlns:cc="http://creativecommons.org/ns#"
   xmlns:rdf="http://www.w3.org/1999/02/22-rdf-syntax-ns#"
   xmlns:svg="http://www.w3.org/2000/svg"
   xmlns="http://www.w3.org/2000/svg"
   xmlns:sodipodi="http://sodipodi.sourceforge.net/DTD/sodipodi-0.dtd"
   xmlns:inkscape="http://www.inkscape.org/namespaces/inkscape"
   viewBox="0 0 64 64"
   enable-background="new 0 0 64 64"
   id="svg2"
   version="1.1"
   inkscape:version="0.91 r13725"
   sodipodi:docname="man.svg">
  <metadata
     id="metadata68">
    <rdf:RDF>
      <cc:Work
         rdf:about="">
        <dc:format>image/svg+xml</dc:format>
        <dc:type
           rdf:resource="http://purl.org/dc/dcmitype/StillImage" />
        <dc:title></dc:title>
      </cc:Work>
    </rdf:RDF>
  </metadata>
  <defs
     id="defs66" />
  <sodipodi:namedview
     pagecolor="#ffffff"
     bordercolor="#666666"
     borderopacity="1"
     objecttolerance="10"
     gridtolerance="10"
     guidetolerance="10"
     inkscape:pageopacity="0"
     inkscape:pageshadow="2"
     inkscape:window-width="1855"
     inkscape:window-height="1056"
     id="namedview64"
     showgrid="false"
     inkscape:zoom="8.4554935"
     inkscape:cx="21.981907"
     inkscape:cy="27.544794"
     inkscape:window-x="65"
     inkscape:window-y="24"
     inkscape:window-maximized="1"
     inkscape:current-layer="svg2" />
  <g
     id="g4216"
     transform="matrix(1.4516129,0,0,1.4516129,-35.790322,-1.0395132)">
    <path
       id="path6"
       d="m 32,34.8 0,8.62722 30,0 L 62,34.8 C 62,29 32,29 32,34.8"
       inkscape:connector-curvature="0"
       style="fill:#01579b"
       sodipodi:nodetypes="cccsc" />
    <path
       id="path20"
       d="m 31.9,17.3 1.5,2.8 26.2,0 1.1,-2.9 C 60.7,6.6 58.2,2.2 46.6,2.1 34.8,1.9 31.9,6.6 31.9,17.3"
       inkscape:connector-curvature="0"
       style="fill:#ffb300" />
    <path
       id="path22"
       d="m 59.7,17.1 c -0.1,0.6 -0.2,1.2 -0.4,1.5 -0.3,0.6 -0.9,0.9 -0.9,0.9 0,0 0.2,-1.2 0.1,-2.8 -0.7,-9.7 -1.2,-5.1 -11.9,-5.1 -10.7,0 -11.3,-4.7 -11.9,5 -0.1,1.7 0.1,2.8 0.1,2.8 0,0 -0.6,-0.3 -0.9,-0.9 -0.2,-0.3 -0.3,-0.9 -0.4,-1.5 -1,-0.3 -2.3,0 -2.3,2.9 0,1.8 0.7,3.3 2.9,3.5 0.8,6.1 8.9,10.1 12.6,10.1 3.6,0 11.8,-4.1 12.6,-10.1 2.2,-0.2 2.9,-1.7 2.9,-3.5 -0.2,-2.8 -1.5,-3 -2.5,-2.8"
       inkscape:connector-curvature="0"
       style="fill:#ffdd67" />
    <g
       id="g24"
       style="fill:#937237">
      <circle
         id="circle26"
         r="2.2"
         cy="20.299999"
         cx="41" />
      <circle
         id="circle28"
         r="2.2"
         cy="20.299999"
         cx="52" />
      <path
         id="path30"
         d="m 50.1,27.1 c -2.3,1.8 -4.9,1.8 -7.2,0 -0.3,-0.2 -0.5,0.2 -0.3,0.5 0.7,1.3 2.1,2.4 3.9,2.4 1.8,0 3.2,-1.1 3.9,-2.4 0.2,-0.3 0,-0.7 -0.3,-0.5"
         inkscape:connector-curvature="0" />
    </g>
  </g>
</svg>
