<svg id="family" preserveAspectRatio="xMidYMid meet" viewBox="0 0 79 64" xmlns="http://www.w3.org/2000/svg">
    <g id="parents-container" transform="translate(7.5)"><g id="parent-0" transform="translate(0)">
        <path class="hair" d="M17,2C7.3,2,2,8.3,2,16.7v18.5h30V16.7c0-12.4-8.1-12.2-8.1-12.2S23.3,2,17,2z" fill="#594640"></path>
        <path d="M2,34.8V62h30V34.8C32,29,2,29,2,34.8z" fill="#c2185b"></path>
        <path class="skin" d="m6.4 23.6c0 0-2.2-.6-2.2-3.9 0-2.6 1.7-3.1 1.7-3.1 6 0 15.8-7.8 15.8-7.8s3.7 6.9 7.3 7.8c0 0 1.7.3 1.7 3.1 0 3.3-2.3 3.9-2.3 3.9 0 5-6.8 10-11 10-4 0-11-5-11-10" fill="#ffe1bd"></path>
        <g class="mouth-and-eyes" fill="#664e27">
            <circle r="2.2" cy="20.3" cx="12.1"></circle>
            <circle r="2.2" cy="20.3" cx="22.9"></circle>
            <path d="m21.1 27.1c-2.3 1.8-4.9 1.8-7.2 0-.3-.2-.5.2-.3.5.7 1.3 2.1 2.4 3.9 2.4s3.2-1.1 3.9-2.4c.2-.3 0-.7-.3-.5"></path>
        </g>
    </g><g id="parent-1" transform="translate(0)">
        <path d="m32 34.8v27.2h30v-27.2c0-5.8-30-5.8-30 0" fill="#01579b"></path>
        <path class="hair" d="m31.9 17.3l1.5 2.8h26.2l1.1-2.9c0-10.6-2.5-15-14.1-15.1-11.8-.2-14.7 4.5-14.7 15.2" fill="#231f20"></path>
        <path class="skin" d="m59.7 17.1c-.1.6-.2 1.2-.4 1.5-.3.6-.9.9-.9.9s.2-1.2.1-2.8c-.7-9.7-1.2-5.1-11.9-5.1-10.7 0-11.3-4.7-11.9 5-.1 1.7.1 2.8.1 2.8s-.6-.3-.9-.9c-.2-.3-.3-.9-.4-1.5-1-.3-2.3 0-2.3 2.9 0 1.8.7 3.3 2.9 3.5.8 6.1 8.9 10.1 12.6 10.1 3.6 0 11.8-4.1 12.6-10.1 2.2-.2 2.9-1.7 2.9-3.5-.2-2.8-1.5-3-2.5-2.8" fill="#8a6859"></path>
        <g class="mouth-and-eyes" fill="#574137">
            <circle r="2.2" cy="20.3" cx="41"></circle>
            <circle r="2.2" cy="20.3" cx="52"></circle>
            <path d="m50.1 27.1c-2.3 1.8-4.9 1.8-7.2 0-.3-.2-.5.2-.3.5.7 1.3 2.1 2.4 3.9 2.4s3.2-1.1 3.9-2.4c.2-.3 0-.7-.3-.5"></path>
        </g>
    </g></g>
    <g id="children-container" transform="translate(-5)"><g id="child-0" transform="translate(0)">
        <path class="hair" fill="#231f20" d="m30 51.6h.9v-5.7c0-5.5-4.4-9.8-11.6-9.8-6.9 0-11.6 4.4-11.6 9.8 0 1.1 0 5.7 0 5.7h1.2c-1.5 1.7-2.7 5.4-1.4 7.7.5.9 5.9 4.2 6.4-1.6h11.1c.5 5.8 5.9 2.5 6.4 1.6 1.3-2.3.1-6-1.4-7.7"></path>
        <g fill="#ff81ab">
            <path d="m19.3 37.8c-6.2 0-10.4 3.2-10.4 7.2 0 0 0 .5 0 1.2 0-4 4.2-7.2 10.4-7.2 6.4 0 10.4 3.2 10.4 7.2v-1.2c0-4-3.9-7.2-10.4-7.2"></path>
            <path d="m7 62h25c0-8.4-25-8.4-25 0"></path>
        </g>
        <path class="skin" fill="#b47d56" d="m29.3 52.8c0 0 1.8.3 1.8-1.7 0-1.6-1.8-1.5-1.8-1.5v-1.8c0 0-13.5-.6-16.6-5.7.8 5.1-3.3 7.4-3.3 7.4s-1.8-.2-1.8 1.5c0 2 1.8 1.7 1.8 1.7 0 3 5.3 6.2 10.2 6.2 4.4.1 9.7-2.6 9.7-6.1"></path>
        <g class="mouth-and-eyes" fill="#664e27">
            <path d="m25.8 49.8c0 1-.8 1.8-1.8 1.8-1 0-1.8-.8-1.8-1.8s.9-1.8 1.8-1.8c1 0 1.8.8 1.8 1.8"></path>
            <circle r="1.8" cy="49.8" cx="14.9"></circle>
            <path d="m22.6 54.4c-2 1.5-4.3 1.5-6.3 0-.2-.2-.5.1-.3.4.6 1.1 1.9 2 3.4 2 1.6 0 2.8-1 3.4-2 .3-.3 0-.6-.2-.4"></path>
        </g>
    </g><g id="child-1" transform="translate(0)">
        <path fill="#29b6f6" d="m57 62h-25c0-8.4 25-8.4 25 0"></path>
        <path class="hair" fill="#594640" d="m44.5 36c-6.7 0-10.9 3.8-10.9 8.5v3.2c0 3.7 2.9 3.7 2.9 3.7h16.4c0 0 2.5 0 2.5-3.7 0-1.7 0-3.2 0-3.2 0-4.7-4.4-8.5-10.9-8.5"></path>
        <path class="skin" fill="#d6a57c" d="m34.6 48.5l.4-4.5c0-2.9 4.5-.6 9.5-.6s9.5-2.3 9.5.6l.4 4.5c2.2 0 2.2 3.5 0 3.5 0 4.4-5.9 7-9.9 7-4 0-9.9-2.6-9.9-7-2.1 0-2.1-3.5 0-3.5"></path>
        <g class="mouth-and-eyes" fill="#664e27">
            <circle r="1.8" cy="49.8" cx="39.7"></circle>
            <circle r="1.8" cy="49.8" cx="49.3"></circle>
            <path d="m41.4 54.4c2 1.5 4.3 1.5 6.3 0 .2-.2.5.1.3.4-.6 1.1-1.9 2-3.4 2-1.6 0-2.8-1-3.4-2-.3-.3-.1-.6.2-.4"></path>
        </g>
    </g><g id="child-2" transform="translate(50)">
        <path class="hair" fill="#dbb471" d="m30 51.6h.9v-5.7c0-5.5-4.4-9.8-11.6-9.8-6.9 0-11.6 4.4-11.6 9.8 0 1.1 0 5.7 0 5.7h1.2c-1.5 1.7-2.7 5.4-1.4 7.7.5.9 5.9 4.2 6.4-1.6h11.1c.5 5.8 5.9 2.5 6.4 1.6 1.3-2.3.1-6-1.4-7.7"></path>
        <g fill="#ff81ab">
            <path d="m19.3 37.8c-6.2 0-10.4 3.2-10.4 7.2 0 0 0 .5 0 1.2 0-4 4.2-7.2 10.4-7.2 6.4 0 10.4 3.2 10.4 7.2v-1.2c0-4-3.9-7.2-10.4-7.2"></path>
            <path d="m7 62h25c0-8.4-25-8.4-25 0"></path>
        </g>
        <path class="skin" fill="#fed0ac" d="m29.3 52.8c0 0 1.8.3 1.8-1.7 0-1.6-1.8-1.5-1.8-1.5v-1.8c0 0-13.5-.6-16.6-5.7.8 5.1-3.3 7.4-3.3 7.4s-1.8-.2-1.8 1.5c0 2 1.8 1.7 1.8 1.7 0 3 5.3 6.2 10.2 6.2 4.4.1 9.7-2.6 9.7-6.1"></path>
        <g class="mouth-and-eyes" fill="#664e27">
            <path d="m25.8 49.8c0 1-.8 1.8-1.8 1.8-1 0-1.8-.8-1.8-1.8s.9-1.8 1.8-1.8c1 0 1.8.8 1.8 1.8"></path>
            <circle r="1.8" cy="49.8" cx="14.9"></circle>
            <path d="m22.6 54.4c-2 1.5-4.3 1.5-6.3 0-.2-.2-.5.1-.3.4.6 1.1 1.9 2 3.4 2 1.6 0 2.8-1 3.4-2 .3-.3 0-.6-.2-.4"></path>
        </g>
    </g></g>
</svg>
