<?xml version="1.0" encoding="UTF-8" standalone="no"?>
<svg
   xmlns:dc="http://purl.org/dc/elements/1.1/"
   xmlns:cc="http://creativecommons.org/ns#"
   xmlns:rdf="http://www.w3.org/1999/02/22-rdf-syntax-ns#"
   xmlns:svg="http://www.w3.org/2000/svg"
   xmlns="http://www.w3.org/2000/svg"
   xmlns:sodipodi="http://sodipodi.sourceforge.net/DTD/sodipodi-0.dtd"
   xmlns:inkscape="http://www.inkscape.org/namespaces/inkscape"
   viewBox="0 0 64 64"
   enable-background="new 0 0 64 64"
   id="svg2"
   version="1.1"
   inkscape:version="0.91 r13725"
   sodipodi:docname="woman.svg">
  <metadata
     id="metadata68">
    <rdf:RDF>
      <cc:Work
         rdf:about="">
        <dc:format>image/svg+xml</dc:format>
        <dc:type
           rdf:resource="http://purl.org/dc/dcmitype/StillImage" />
        <dc:title></dc:title>
      </cc:Work>
    </rdf:RDF>
  </metadata>
  <defs
     id="defs66" />
  <sodipodi:namedview
     pagecolor="#ffffff"
     bordercolor="#666666"
     borderopacity="1"
     objecttolerance="10"
     gridtolerance="10"
     guidetolerance="10"
     inkscape:pageopacity="0"
     inkscape:pageshadow="2"
     inkscape:window-width="1855"
     inkscape:window-height="1056"
     id="namedview64"
     showgrid="false"
     inkscape:zoom="6.640381"
     inkscape:cx="21.833592"
     inkscape:cy="19.343087"
     inkscape:window-x="65"
     inkscape:window-y="24"
     inkscape:window-maximized="1"
     inkscape:current-layer="svg2" />
  <g
     id="g4225"
     transform="matrix(1.4666667,0,0,1.4666667,7.0666661,-0.933336)">
    <path
       id="path4"
       d="M 17,2 C 7.3,2 2,8.3 2,16.7 l 0,18.5 30,0 0,-18.5 C 32,4.3 23.9,4.5 23.9,4.5 23.9,4.5 23.3,2 17,2 Z"
       inkscape:connector-curvature="0"
       style="fill:#ffb300" />
    <path
       id="path8"
       d="m 2,34.8 0,8.109092 30,0 L 32,34.8 C 32,29 2,29 2,34.8 Z"
       inkscape:connector-curvature="0"
       style="fill:#c2185b"
       sodipodi:nodetypes="sccss" />
    <path
       id="path10"
       d="m 6.4,23.6 c 0,0 -2.2,-0.6 -2.2,-3.9 0,-2.6 1.7,-3.1 1.7,-3.1 6,0 15.8,-7.8 15.8,-7.8 0,0 3.7,6.9 7.3,7.8 0,0 1.7,0.3 1.7,3.1 0,3.3 -2.3,3.9 -2.3,3.9 0,5 -6.8,10 -11,10 -4,0 -11,-5 -11,-10"
       inkscape:connector-curvature="0"
       style="fill:#ffdd67" />
    <g
       id="g12"
       style="fill:#937237">
      <circle
         id="circle14"
         r="2.2"
         cy="20.299999"
         cx="12.1" />
      <circle
         id="circle16"
         r="2.2"
         cy="20.299999"
         cx="22.9" />
      <path
         id="path18"
         d="m 21.1,27.1 c -2.3,1.8 -4.9,1.8 -7.2,0 -0.3,-0.2 -0.5,0.2 -0.3,0.5 0.7,1.3 2.1,2.4 3.9,2.4 1.8,0 3.2,-1.1 3.9,-2.4 0.2,-0.3 0,-0.7 -0.3,-0.5"
         inkscape:connector-curvature="0" />
    </g>
  </g>
</svg>
